# xmcd CD database file
#
# Track frame offsets:
#	183
#	23010
#	38900
#	60575
#	71645
#	87805
#	99470
#	114563
#	126988
#	145843
#	165310
#	181565
#	193643
#	211923
#	237308
#
# Disc length: 3427 seconds
#
# Revision: 3
# Processed by: cddbd v1.5.2PL0 Copyright (c) Steve Scherf et al.
# Submitted via: CDex 1.70beta2
#
DISCID=c30d610f
DTITLE=Various Artist - 209 - The Magical Sound Of The Pan Pipes - CD - 04
DYEAR=1992
DGENRE=Panflöte
TTITLE0=Lily Was Here
TTITLE1=Cavatina
TTITLE2=Don't Cry For Me Argentina
TTITLE3=Ave Maria
TTITLE4=If You Go away
TTITLE5=Theme From Love Story
TTITLE6=The Shadow Of Your Smile
TTITLE7=The Floral Dance
TTITLE8=I Wonder Why
TTITLE9=The Lady In Red
TTITLE10=Canon
TTITLE11=Doina Luis Petru Unc
TTITLE12=What Now My Love
TTITLE13=Moments In Love
TTITLE14=A Whiter Shade Of Pale
EXTD=YEAR: 1992
EXTT0=
EXTT1=
EXTT2=
EXTT3=
EXTT4=
EXTT5=
EXTT6=
EXTT7=
EXTT8=
EXTT9=
EXTT10=
EXTT11=
EXTT12=
EXTT13=
EXTT14=
PLAYORDER=
